<svg xmlns="http://www.w3.org/2000/svg" width="2074.667" height="2074.667" preserveAspectRatio="xMidYMid meet" version="1.0" viewBox="0 0 1556 1556"><metadata>Created by potrace 1.11, written by Peter Selinger 2001-2013</metadata><g fill="#000" stroke="none"><path d="M7155 15544 c-3681 -307 -6633 -3136 -7095 -6799 -43 -349 -54 -532 -54 -965 0 -433 11 -616 54 -965 463 -3670 3426 -6503 7113 -6800 258 -21 976 -21 1234 0 3686 297 6657 3137 7112 6800 37 296 41 388 41 965 0 318 -5 626 -10 690 -343 3788 -3353 6769 -7143 7075 -241 19 -1017 19 -1252 -1z" transform="translate(0.000000,1556.000000) scale(0.100000,-0.100000)"/></g></svg>